<mxfile host="Electron" agent="Mozilla/5.0 (Windows NT 10.0; Win64; x64) AppleWebKit/537.36 (KHTML, like Gecko) draw.io/24.7.8 Chrome/128.0.6613.36 Electron/32.0.1 Safari/537.36" version="24.7.8">
  <diagram name="Page-1" id="A0-WgovnXK2nkCPpZ6Oe">
    <mxGraphModel dx="987" dy="669" grid="1" gridSize="10" guides="1" tooltips="1" connect="1" arrows="1" fold="1" page="1" pageScale="1" pageWidth="850" pageHeight="1100" math="0" shadow="0">
      <root>
        <mxCell id="0" />
        <mxCell id="1" parent="0" />
        <mxCell id="w9Bct-Bytk-oasnaVu2b-14" value="«Component»&lt;br&gt;&lt;b&gt;Liga&lt;/b&gt;" style="html=1;dropTarget=0;whiteSpace=wrap;" vertex="1" parent="1">
          <mxGeometry x="520" y="420" width="180" height="90" as="geometry" />
        </mxCell>
        <mxCell id="w9Bct-Bytk-oasnaVu2b-15" value="" style="shape=module;jettyWidth=8;jettyHeight=4;" vertex="1" parent="w9Bct-Bytk-oasnaVu2b-14">
          <mxGeometry x="1" width="20" height="20" relative="1" as="geometry">
            <mxPoint x="-27" y="7" as="offset" />
          </mxGeometry>
        </mxCell>
        <mxCell id="w9Bct-Bytk-oasnaVu2b-19" value="" style="shape=providedRequiredInterface;html=1;verticalLabelPosition=bottom;sketch=0;" vertex="1" parent="1">
          <mxGeometry x="420" y="455" width="20" height="20" as="geometry" />
        </mxCell>
        <mxCell id="w9Bct-Bytk-oasnaVu2b-21" value="" style="endArrow=none;html=1;rounded=0;entryX=0;entryY=0.5;entryDx=0;entryDy=0;entryPerimeter=0;exitX=1;exitY=0.5;exitDx=0;exitDy=0;" edge="1" parent="1" source="w9Bct-Bytk-oasnaVu2b-22" target="w9Bct-Bytk-oasnaVu2b-19">
          <mxGeometry width="50" height="50" relative="1" as="geometry">
            <mxPoint x="440" y="440" as="sourcePoint" />
            <mxPoint x="600" y="420" as="targetPoint" />
            <Array as="points" />
          </mxGeometry>
        </mxCell>
        <mxCell id="w9Bct-Bytk-oasnaVu2b-22" value="«Component»&lt;br&gt;&lt;b&gt;Tävling&lt;/b&gt;" style="html=1;dropTarget=0;whiteSpace=wrap;" vertex="1" parent="1">
          <mxGeometry x="160" y="420" width="180" height="90" as="geometry" />
        </mxCell>
        <mxCell id="w9Bct-Bytk-oasnaVu2b-23" value="" style="shape=module;jettyWidth=8;jettyHeight=4;" vertex="1" parent="w9Bct-Bytk-oasnaVu2b-22">
          <mxGeometry x="1" width="20" height="20" relative="1" as="geometry">
            <mxPoint x="-27" y="7" as="offset" />
          </mxGeometry>
        </mxCell>
        <mxCell id="w9Bct-Bytk-oasnaVu2b-24" value="&amp;laquo;Annotation&amp;raquo;&lt;br/&gt;&lt;b&gt;Component&lt;/b&gt;" style="html=1;dropTarget=0;whiteSpace=wrap;" vertex="1" parent="1">
          <mxGeometry x="340" y="170" width="180" height="90" as="geometry" />
        </mxCell>
        <mxCell id="w9Bct-Bytk-oasnaVu2b-25" value="" style="shape=module;jettyWidth=8;jettyHeight=4;" vertex="1" parent="w9Bct-Bytk-oasnaVu2b-24">
          <mxGeometry x="1" width="20" height="20" relative="1" as="geometry">
            <mxPoint x="-27" y="7" as="offset" />
          </mxGeometry>
        </mxCell>
        <mxCell id="w9Bct-Bytk-oasnaVu2b-27" value="" style="endArrow=none;html=1;rounded=0;entryX=0;entryY=0.5;entryDx=0;entryDy=0;exitX=1;exitY=0.5;exitDx=0;exitDy=0;exitPerimeter=0;" edge="1" parent="1" source="w9Bct-Bytk-oasnaVu2b-19" target="w9Bct-Bytk-oasnaVu2b-14">
          <mxGeometry width="50" height="50" relative="1" as="geometry">
            <mxPoint x="400" y="390" as="sourcePoint" />
            <mxPoint x="450" y="340" as="targetPoint" />
          </mxGeometry>
        </mxCell>
        <mxCell id="w9Bct-Bytk-oasnaVu2b-28" value="Boka tävling" style="text;align=center;fontStyle=1;verticalAlign=middle;spacingLeft=3;spacingRight=3;strokeColor=none;rotatable=0;points=[[0,0.5],[1,0.5]];portConstraint=eastwest;html=1;" vertex="1" parent="1">
          <mxGeometry x="390" y="475" width="80" height="26" as="geometry" />
        </mxCell>
        <mxCell id="w9Bct-Bytk-oasnaVu2b-33" value="" style="shape=providedRequiredInterface;html=1;verticalLabelPosition=bottom;sketch=0;direction=west;" vertex="1" parent="1">
          <mxGeometry x="270" y="205" width="20" height="20" as="geometry" />
        </mxCell>
        <mxCell id="w9Bct-Bytk-oasnaVu2b-34" value="" style="endArrow=none;html=1;rounded=0;entryX=0;entryY=0.5;entryDx=0;entryDy=0;entryPerimeter=0;exitX=0;exitY=0.5;exitDx=0;exitDy=0;" edge="1" parent="1" source="w9Bct-Bytk-oasnaVu2b-24" target="w9Bct-Bytk-oasnaVu2b-33">
          <mxGeometry width="50" height="50" relative="1" as="geometry">
            <mxPoint x="400" y="430" as="sourcePoint" />
            <mxPoint x="450" y="380" as="targetPoint" />
          </mxGeometry>
        </mxCell>
        <mxCell id="w9Bct-Bytk-oasnaVu2b-35" value="" style="endArrow=none;html=1;rounded=0;exitX=0.5;exitY=0;exitDx=0;exitDy=0;entryX=1;entryY=0.5;entryDx=0;entryDy=0;entryPerimeter=0;" edge="1" parent="1" source="w9Bct-Bytk-oasnaVu2b-22" target="w9Bct-Bytk-oasnaVu2b-33">
          <mxGeometry width="50" height="50" relative="1" as="geometry">
            <mxPoint x="400" y="430" as="sourcePoint" />
            <mxPoint x="450" y="380" as="targetPoint" />
            <Array as="points">
              <mxPoint x="250" y="215" />
            </Array>
          </mxGeometry>
        </mxCell>
        <mxCell id="w9Bct-Bytk-oasnaVu2b-36" value="Deltagande" style="text;align=center;fontStyle=1;verticalAlign=middle;spacingLeft=3;spacingRight=3;strokeColor=none;rotatable=0;points=[[0,0.5],[1,0.5]];portConstraint=eastwest;html=1;" vertex="1" parent="1">
          <mxGeometry x="240" y="179" width="80" height="26" as="geometry" />
        </mxCell>
      </root>
    </mxGraphModel>
  </diagram>
</mxfile>
